<svg width="183" height="17" viewBox="0 0 183 17" fill="none" xmlns="http://www.w3.org/2000/svg">
<g clip-path="url(#clip0_8320_3884)">
<path d="M182.786 6.46613C182.74 6.02019 182.693 5.52965 182.599 5.0837C182.506 4.63775 182.412 4.19181 182.225 3.74586C182.132 3.52289 182.038 3.29992 181.945 3.12154C181.851 2.89857 181.711 2.72019 181.617 2.49721C181.477 2.31884 181.337 2.09586 181.197 1.91748C181.056 1.73911 180.869 1.56073 180.682 1.42694C180.308 1.11478 179.934 0.847214 179.513 0.624241C179.092 0.401268 178.625 0.22289 178.157 0.133701C177.69 -8.3141e-05 177.222 -0.0446777 176.708 -0.0446777C176.24 -0.0446777 175.726 -8.3141e-05 175.258 0.133701C174.79 0.267484 174.323 0.401268 173.902 0.624241C173.481 0.847214 173.06 1.11478 172.733 1.42694C172.546 1.56073 172.406 1.73911 172.219 1.91748C172.078 2.09586 171.938 2.27424 171.798 2.49721C171.658 2.67559 171.564 2.89857 171.47 3.12154C171.377 3.34451 171.283 3.56748 171.19 3.74586C171.05 4.19181 170.909 4.63775 170.816 5.0837C170.722 5.52965 170.676 5.97559 170.629 6.46613C170.582 6.91208 170.582 7.40262 170.582 7.84857C170.582 8.29451 170.629 8.74046 170.722 9.231C170.769 9.45397 170.816 9.67694 170.863 9.89992C170.909 10.1229 171.003 10.3459 171.096 10.5688C171.424 11.4161 171.938 12.2188 172.452 12.9769C172.733 13.3783 173.014 13.7351 173.294 14.0918C173.575 14.4486 173.855 14.8499 174.183 15.1621C174.323 15.3405 174.51 15.4742 174.697 15.6526C174.884 15.7864 175.071 15.9202 175.305 16.054C175.492 16.1878 175.726 16.2769 175.959 16.3661C176.053 16.4107 176.193 16.4553 176.287 16.4553C176.427 16.4553 176.521 16.4999 176.661 16.4999C176.801 16.4999 176.895 16.4999 177.035 16.4553C177.175 16.4553 177.269 16.4107 177.362 16.3661C177.596 16.2769 177.83 16.1878 178.017 16.054C178.204 15.9202 178.438 15.7864 178.625 15.6526C178.812 15.5188 178.999 15.3405 179.139 15.1621C179.466 14.8053 179.747 14.4486 180.028 14.0918C180.308 13.7351 180.589 13.3337 180.869 12.9769C181.384 12.2188 181.898 11.4161 182.225 10.5688C182.319 10.3459 182.412 10.1229 182.459 9.89992C182.506 9.67694 182.599 9.45397 182.599 9.231C182.693 8.78505 182.74 8.33911 182.74 7.84857C182.833 7.40262 182.833 6.91208 182.786 6.46613ZM171.517 8.29451C171.517 8.29451 174.183 8.87424 175.913 12.308C175.913 12.308 171.283 12.2188 171.517 8.29451ZM177.596 12.308C179.279 8.87424 181.992 8.29451 181.992 8.29451C182.179 12.2188 177.596 12.308 177.596 12.308Z" fill="white"/>
<path d="M157.58 8.74068L158.842 7.67041H155.008V8.74068H157.58Z" fill="white"/>
<path d="M159.686 11.6839H153.981V4.95007H159.499V3.83521H152.672V12.7987H159.826V11.6839H159.686Z" fill="white"/>
<path d="M21.7429 3.83521H20.4336V12.7987H26.6527L27.9152 11.6839H21.7429V3.83521Z" fill="white"/>
<path d="M39.9343 3.83521H38.625V12.7987H39.9343V3.83521Z" fill="white"/>
<path d="M76.4501 11.0595L70.231 3.83521H70.1843H68.875V12.7987H70.1375V5.5298L76.3566 12.7541V12.7987H77.6659V3.83521H76.4501V11.0595Z" fill="white"/>
<path d="M98.8964 11.1487L96.0908 3.83521H94.875L92.0694 11.1487L89.8717 3.83521H88.5156L91.2277 12.7541V12.7987H92.6773L95.4829 5.57439L98.2417 12.7987H99.6913L102.45 3.8798V3.83521H101.094L98.8964 11.1487Z" fill="white"/>
<path d="M140.982 8.11629C141.403 7.75953 141.636 7.22439 141.636 6.60007V6.28791C141.636 5.88656 141.543 5.57439 141.403 5.26223C141.262 4.95007 141.029 4.6825 140.748 4.45953C140.467 4.23656 140.14 4.10277 139.719 3.96899C139.345 3.8798 138.878 3.83521 138.41 3.83521H133.594V12.7987H134.903V4.95007H138.363C139.065 4.95007 139.626 5.12845 140 5.4852C140.234 5.70818 140.374 6.02034 140.374 6.42169V6.73385C140.374 6.95683 140.327 7.1352 140.234 7.31358C140.14 7.49196 140 7.62575 139.813 7.75953C139.626 7.89331 139.439 7.93791 139.205 8.0271C138.971 8.07169 138.737 8.11629 138.504 8.11629H135.464V9.18656H138.27L140.514 12.8433V12.8879H141.964L139.532 8.91899C140.047 8.69602 140.608 8.47304 140.982 8.11629Z" fill="white"/>
<path d="M4.20841 3.70142L0.0467601 12.7095L0 12.7987H1.44956L2.66533 10.1676L2.89913 9.6325H6.9205L8.37006 12.7987H9.81962L5.56445 3.70142H4.20841ZM6.40614 8.51763H3.36673L4.86305 5.12844L6.40614 8.51763Z" fill="white"/>
<path d="M117.322 3.70142L113.16 12.7095L113.113 12.7987H114.563L115.779 10.1676L116.012 9.6325H120.034L121.483 12.7541V12.7987H122.933L118.678 3.74601H117.322V3.70142ZM119.519 8.51763H116.48L117.976 5.12844L119.519 8.51763Z" fill="white"/>
<path d="M55.7397 8.74068L57.0022 7.67041H53.1211V8.74068H55.7397Z" fill="white"/>
<path d="M52.0905 11.6839V4.95007H57.6082V3.83521H50.7812V12.7987H57.9355V11.6839H57.842H52.0905Z" fill="white"/>
<path d="M160.668 3.96899V3.83521H161.79V4.01358H161.323V4.95007H161.089V3.96899H160.668Z" fill="white"/>
<path d="M162.304 3.83521L162.818 4.50412L163.333 3.83521H163.567V4.95007H163.333V4.10277L162.865 4.6825H162.725L162.304 4.10277V4.95007H162.07V3.83521H162.304Z" fill="white"/>
</g>
<defs>
<clipPath id="clip0_8320_3884">
<rect width="182.832" height="16.5" fill="white"/>
</clipPath>
</defs>
</svg>
