<svg width="150" height="26" viewBox="0 0 150 26" fill="none" xmlns="http://www.w3.org/2000/svg">
<g clip-path="url(#clip0_8320_4003)">
<path d="M30.1569 7.02988C24.7305 7.02988 20.4844 10.9226 20.4844 16.1341C20.4844 21.3457 24.622 25.2 30.1569 25.2C35.6917 25.2 39.8972 21.2817 39.8972 16.0957C39.9107 10.961 35.7731 7.02988 30.1569 7.02988ZM30.1976 21.4482C27.1046 21.4482 24.8391 19.1817 24.8391 16.1341C24.8391 13.061 27.0639 10.7945 30.1569 10.7945C33.2906 10.7945 35.5561 13.0994 35.5561 16.1341C35.5561 19.1689 33.2906 21.4482 30.1976 21.4482ZM41.091 10.9866H43.7906V24.8543H48.1045V7.37561H41.091V10.9866ZM9.63175 10.7945C11.8972 10.7945 13.6879 12.1134 14.3798 14.0726H18.9515C18.124 9.87256 14.4612 7.04268 9.67245 7.04268C4.24611 7.02988 0 10.9226 0 16.1341C0 21.3457 4.13758 25.2 9.67245 25.2C14.3527 25.2 18.0833 22.3573 18.9108 18.1317H14.3798C13.7286 20.0909 11.9379 21.4482 9.67245 21.4482C6.53874 21.4482 4.35464 19.1817 4.35464 16.1341C4.35464 13.061 6.51161 10.7945 9.63175 10.7945ZM123.056 14.4439L119.895 14.0085C118.389 13.8037 117.304 13.3299 117.304 12.2159C117.304 10.9994 118.701 10.3848 120.614 10.3848C122.703 10.3848 124.033 11.2299 124.317 12.6128H128.482C128.021 9.09146 125.145 7.02988 120.722 7.02988C116.151 7.02988 113.139 9.23232 113.139 12.3439C113.139 15.3146 115.12 17.0433 119.108 17.5811L122.269 18.0165C123.815 18.2213 124.684 18.7976 124.684 19.8732C124.684 21.2561 123.178 21.8323 121.089 21.8323C118.538 21.8323 117.1 20.8463 116.883 19.361H112.637C113.031 22.7799 115.879 25.1744 121.048 25.1744C125.755 25.1744 128.889 23.1512 128.889 19.6555C128.889 16.5695 126.624 14.9561 123.056 14.4439ZM45.9475 0.166463C44.3603 0.166463 43.1801 1.25488 43.1801 2.74024C43.1801 4.22561 44.3603 5.31402 45.9475 5.31402C47.5347 5.31402 48.715 4.22561 48.715 2.74024C48.715 1.25488 47.5212 0.166463 45.9475 0.166463ZM109.259 13.3555C109.259 9.56524 106.817 7.02988 101.635 7.02988C96.7516 7.02988 94.0113 9.36037 93.4687 12.9457H97.7419C97.959 11.5628 99.1121 10.4104 101.554 10.4104C103.752 10.4104 104.823 11.3195 104.823 12.4335C104.823 13.8933 102.843 14.2646 100.401 14.4951C97.0908 14.828 92.9939 15.9165 92.9939 19.9756C92.9939 23.1256 95.4764 25.1488 99.4241 25.1488C102.517 25.1488 104.457 23.9323 105.434 21.9988C105.583 23.7274 106.94 24.8415 108.852 24.8415H111.376V21.2177H109.259V13.3555ZM105.013 17.7604C105.013 20.0909 102.856 21.8195 100.238 21.8195C98.6237 21.8195 97.2536 21.1793 97.2536 19.822C97.2536 18.0933 99.4512 17.6195 101.459 17.4146C103.399 17.2482 104.484 16.8384 105.013 16.0573V17.7604ZM82.1141 7.02988C79.6994 7.02988 77.6916 7.97744 76.2536 9.56524V0H71.9397V24.8543H76.1858V22.5494C77.6238 24.2012 79.6722 25.1872 82.1141 25.1872C87.2962 25.1872 91.2032 21.3329 91.2032 16.1213C91.2032 10.9098 87.2148 7.02988 82.1141 7.02988ZM81.4629 21.4482C78.3699 21.4482 76.1044 19.1817 76.1044 16.1341C76.1044 13.0866 78.4106 10.7945 81.5036 10.7945C84.6373 10.7945 86.8214 13.061 86.8214 16.1341C86.8214 19.1817 84.5559 21.4482 81.4629 21.4482ZM61.6161 7.02988C58.808 7.02988 56.9766 8.11829 55.9049 9.62927V7.37561H51.6316V24.8671H55.9456V15.3659C55.9456 12.6896 57.7498 10.7945 60.4087 10.7945C62.8913 10.7945 64.4378 12.4463 64.4378 14.8537V24.8671H68.7517V14.5463C68.7382 10.1415 66.3234 7.02988 61.6161 7.02988ZM149.441 15.5579C149.441 10.5512 145.562 7.02988 140.352 7.02988C134.817 7.02988 130.748 10.9482 130.748 16.1341C130.748 21.5762 135.102 25.2 140.42 25.2C144.91 25.2 148.438 22.703 149.333 19.1433H144.843C144.191 20.7055 142.618 21.5762 140.488 21.5762C137.72 21.5762 135.631 19.95 135.17 17.1073H149.441V15.5579ZM135.428 14.2006C136.106 11.7677 138.046 10.5768 140.284 10.5768C142.726 10.5768 144.598 11.8957 145.032 14.2006H135.428Z" fill="white"/>
</g>
<defs>
<clipPath id="clip0_8320_4003">
<rect width="149.441" height="25.2" fill="white"/>
</clipPath>
</defs>
</svg>
