<svg width="120" height="72" viewBox="0 0 120 72" fill="none" xmlns="http://www.w3.org/2000/svg">
<g clip-path="url(#clip0_8320_3963)">
<path d="M13.774 59.9204L15.5885 60.1149C16.4133 60.1927 16.4958 60.8542 16.4958 61.2433V63.2666H8.12418V61.2433C8.12418 60.8153 8.20666 60.1927 9.03145 60.1149L10.846 59.9204V58.1694H0V59.9204L1.81454 60.1149C2.63933 60.1927 2.72181 60.8542 2.72181 61.2433V67.8968C2.72181 68.3248 2.63933 68.9473 1.81454 69.0251L0 69.2586V70.9706H10.846V69.2586L9.03145 69.064C8.20666 68.9862 8.12418 68.3248 8.12418 67.9357V65.9124H16.4958V67.9357C16.4958 68.3637 16.4133 68.9862 15.5885 69.064L13.774 69.2586V70.9706H24.62V69.2586L22.8054 69.064C21.9806 68.9862 21.8982 68.3248 21.8982 67.9357V61.2822C21.8982 60.8542 21.9806 60.2316 22.8054 60.1538L24.62 59.9593V58.2083H13.774V59.9204Z" fill="white"/>
<path d="M86.2319 58.2083H72.829V59.9592L74.4374 60.1148C75.0147 60.1926 75.3859 60.4261 75.3859 61.1654V67.9356C75.3859 68.3636 75.3034 68.9861 74.4786 69.0639L72.6641 69.2585V70.9705H86.2319C91.0981 70.9705 95.0983 69.1418 95.0983 64.5894C95.0983 60.037 91.0981 58.2083 86.2319 58.2083ZM85.2421 68.5192H80.7058V60.6206H85.2421C87.9227 60.6206 88.8299 61.8268 88.8299 64.5505C88.8299 67.313 87.9227 68.5192 85.2421 68.5192Z" fill="white"/>
<path d="M117.902 69.064C117.036 68.9862 116.788 68.4415 116.499 68.0524C110.231 59.0254 110.231 59.0254 110.231 59.0254C109.777 58.364 109.447 58.1694 108.788 58.1694H98.4777V59.9204L100.952 60.1927C101.282 60.2316 101.777 60.6596 101.365 61.2822L96.7457 68.3637C96.5395 68.636 96.3333 68.9862 95.7972 69.064L93.9414 69.2586V70.9706H102.602V69.2586L101.117 69.103C100.498 69.0251 100.127 68.636 100.457 68.1302L101.158 67.0797H109.489L110.107 67.9746C110.643 68.7528 109.984 69.064 109.365 69.1419L107.839 69.2975V71.0484H119.592V69.2586L117.902 69.064ZM102.684 64.8229L105.241 60.8931L107.963 64.8229H102.684Z" fill="white"/>
<path d="M63.1371 59.9203L64.9516 60.1148C65.7764 60.1926 65.8589 60.8541 65.8589 61.2432V67.6243L58.642 58.753C58.312 58.325 58.0234 58.2083 57.2811 58.2083C56.7862 58.2083 47.9609 58.2083 47.9609 58.2083V59.9592L49.7755 60.1537C50.6003 60.2315 50.6827 60.893 50.6827 61.2821V67.9356C50.6827 68.3636 50.6003 68.9861 49.7755 69.0639L47.9609 69.2585V70.9705H56.6212V69.2585L54.8067 69.0639C53.9819 68.9861 53.8994 68.3247 53.8994 67.9356V61.5544L61.0751 70.4647C61.405 70.8927 61.6937 71.0094 62.436 71.0094C62.4772 71.0094 62.5185 71.0094 62.5185 71.0094C62.8484 71.0094 64.2093 71.0094 69.0343 71.0094V61.2821C69.0343 60.8541 69.1168 60.2315 69.9416 60.1537L71.7561 59.9592V58.2083H63.0958V59.9203H63.1371Z" fill="white"/>
<path d="M36.2887 57.7415C27.4635 57.7415 25.1953 61.3989 25.1953 64.5895C25.1953 67.7801 27.4635 71.4375 36.2887 71.4375C45.114 71.4375 47.3822 67.7801 47.3822 64.5895C47.3822 61.3989 45.114 57.7415 36.2887 57.7415ZM36.2887 68.9862C32.8659 68.9862 31.4637 67.6244 31.4637 64.5895C31.4637 61.5546 32.9071 60.1927 36.2887 60.1927C39.7116 60.1927 41.1137 61.5546 41.1137 64.5895C41.1137 67.6244 39.7116 68.9862 36.2887 68.9862Z" fill="white"/>
<path d="M74.849 4.20215C73.3644 10.5055 72.7458 13.3847 71.5499 17.9371C70.3952 22.295 69.4879 26.3805 67.9208 28.3259C66.3537 30.3103 64.2092 30.7383 62.7659 30.8939C62.0236 30.9718 61.4874 31.0107 59.8791 31.0107C58.2708 31.0107 57.7346 30.9718 56.9923 30.8939C55.549 30.7383 53.4457 30.3103 51.8374 28.3259C50.2703 26.3415 49.363 22.295 48.2083 17.9371C47.0124 13.3847 46.3938 10.5055 44.9092 4.20215C44.9092 4.20215 43.4245 4.24106 42.7647 4.31888C41.8574 4.3967 41.1564 4.4356 40.4141 4.55233C40.4141 4.55233 41.2801 17.4702 41.6512 22.9564C42.0636 28.715 42.7647 38.4423 43.4658 45.7573C43.4658 45.7573 44.703 45.9518 46.8062 46.0686C48.9919 46.1853 49.9816 46.1853 49.9816 46.1853C50.8889 42.9558 52.0024 38.4813 53.2395 36.5747C54.2705 35.0183 55.8376 34.8627 56.7449 34.746C58.147 34.5514 59.343 34.5514 59.8791 34.5514C60.4152 34.5514 61.6112 34.5514 63.0133 34.746C63.9206 34.8627 65.4877 35.0183 66.5187 36.5747C67.7971 38.4813 68.9105 42.9558 69.7766 46.1853C69.7766 46.1853 70.7663 46.1853 72.952 46.0686C75.014 45.9518 76.2924 45.7573 76.2924 45.7573C76.9522 38.4423 77.6946 28.715 78.1069 22.9564C78.4781 17.4702 79.3441 4.55233 79.3441 4.55233C78.6018 4.47451 77.9007 4.3967 76.9935 4.31888C76.3336 4.27997 74.849 4.20215 74.849 4.20215Z" fill="white"/>
<path d="M92.1302 11.8673C91.2642 3.65748 85.4494 1.90656 80.3357 1.12837C77.7789 0.739277 73.2013 0.389093 70.2733 0.272365C67.7164 0.0778186 61.6955 0 59.8809 0C58.1076 0 52.0454 0.0778186 49.4886 0.233456C46.5606 0.350184 41.983 0.700368 39.4261 1.08946C34.3537 1.90656 28.5389 3.65748 27.6729 11.8673C27.4255 14.1241 27.343 17.0423 27.4255 20.155C27.5079 25.3689 27.9616 28.8707 28.2503 31.322C28.4152 32.9951 29.1575 38.0144 30.106 40.6213C31.4257 44.201 32.5804 45.2126 33.9825 46.3021C36.4981 48.2475 40.6633 48.8312 41.5706 48.9868C46.2719 49.765 55.757 49.9207 59.9634 49.9207C64.1698 49.9207 73.6549 49.765 78.3562 48.9868C79.2222 48.8312 83.3874 48.2475 85.903 46.3021C87.2639 45.2515 88.4599 44.201 89.7795 40.6213C90.7281 38.0144 91.4704 32.9951 91.6353 31.322C91.924 28.8707 92.3776 25.3689 92.4601 20.155C92.4601 17.0034 92.3776 14.0852 92.1302 11.8673ZM88.9548 25.6412C88.4599 32.2169 87.8413 36.1468 86.934 38.9871C86.1505 41.4773 85.202 43.1504 83.7998 44.3566C81.4492 46.341 78.2325 46.8079 76.3355 47.0414C72.2528 47.625 65.3245 47.8195 59.9222 47.8195C54.5198 47.8195 47.5916 47.625 43.5089 47.0414C41.6118 46.769 38.3952 46.341 36.0445 44.3566C34.6424 43.1504 33.6939 41.4773 32.9103 38.9871C32.0443 36.1468 31.4257 32.2169 30.8896 25.6412C30.5597 21.6725 30.6421 15.2914 31.0958 11.8284C31.7556 6.6924 34.4774 4.12439 40.2509 3.15165C42.9727 2.68474 46.6018 2.37347 50.0247 2.21783C52.7877 2.02328 57.3241 1.94547 59.8809 1.98437C62.4378 1.94547 66.9741 2.06219 69.7372 2.21783C73.2013 2.37347 76.8303 2.68474 79.5109 3.15165C85.2844 4.12439 88.0062 6.6924 88.7073 11.8284C89.2022 15.2914 89.2434 21.7114 88.9548 25.6412Z" fill="white"/>
</g>
<defs>
<clipPath id="clip0_8320_3963">
<rect width="119.636" height="71.4375" fill="white"/>
</clipPath>
</defs>
</svg>
