<svg width="145" height="41" viewBox="0 0 145 41" fill="none" xmlns="http://www.w3.org/2000/svg">
<g clip-path="url(#clip0_8320_3993)">
<path d="M32.7922 15.3921H37.6668C37.6668 15.3921 38.7747 11.9367 38.8855 11.6226C39.1071 11.5179 49.1887 6.07306 49.1887 6.07306L50.2966 2.72241H45.422C45.422 2.72241 44.9788 4.08361 44.868 4.39774C44.6464 4.50244 37.556 8.37663 37.2237 8.48134C37.0021 8.27193 32.7922 4.81657 32.349 4.50244C32.4598 4.08361 32.903 2.72241 32.903 2.72241H32.4598H28.0283L27.0312 5.86365C27.0312 5.86365 33.4569 11.2037 33.9001 11.5179C33.7893 12.0414 32.7922 15.3921 32.7922 15.3921Z" fill="white"/>
<path d="M73.8962 10.2614L72.2344 15.3921H94.3919L95.4997 12.0414H78.66C79.7679 11.6226 86.0828 9.10959 86.0828 9.10959C86.0828 9.10959 80.9866 6.49189 80.3219 6.07306H97.3831L98.491 2.72241H98.0478H76.3335L74.7825 7.74839C74.7825 7.74839 76.3335 8.58605 77.2198 9.00488C76.1119 9.319 73.8962 10.2614 73.8962 10.2614Z" fill="white"/>
<path d="M8.86299 2.72241H3.98835L0 15.3921H4.87464L8.86299 2.72241Z" fill="white"/>
<path d="M25.7029 2.72241H21.2714C21.2714 2.72241 19.9419 6.91072 19.8311 7.43426H8.7524L7.64453 10.7849H18.7233C18.5017 11.6226 17.283 15.4968 17.283 15.4968H22.1577L26.146 2.82712H25.7029V2.72241Z" fill="white"/>
<path d="M55.7239 6.07303H68.1321C68.0213 6.28245 67.9105 6.9107 67.7997 7.12011C67.5781 7.22482 63.7006 8.69073 63.5898 8.79543H56.167L55.0591 12.1461H64.3653L72.0096 9.00485L74.0038 2.61768H73.5606H51.9571L47.9688 15.2873H52.8434L55.7239 6.07303Z" fill="white"/>
<path d="M98.0482 11.0991L96.7188 15.3921H101.593C101.593 15.3921 102.48 12.7744 102.59 12.1462C101.15 11.7274 99.71 11.4132 98.0482 11.0991Z" fill="white"/>
<path d="M113.779 11.9367L120.87 9.2143L122.975 2.72241H122.532H100.817L98.6016 9.319C103.033 9.52842 108.351 10.1567 113.779 11.9367ZM104.584 6.07306H116.992C116.881 6.5966 116.66 7.01543 116.66 7.22485C116.438 7.32956 112.893 8.69076 112.893 8.79546H103.809C103.919 8.16722 104.473 6.38719 104.584 6.07306Z" fill="white"/>
<path d="M144.577 40.3125C141.253 30.9935 136.267 24.3969 130.507 19.6851C135.603 14.9732 139.148 8.58604 139.702 0C139.702 0 137.597 8.58604 126.407 16.7532C109.789 6.07305 89.8476 9.10958 89.8476 9.10958C103.031 10.0519 113.888 14.345 122.308 19.4756C111.783 25.7581 95.2761 31.2029 69.0195 31.4123C69.0195 31.4123 106.466 36.7524 126.851 22.6169C138.816 30.9935 144.577 40.3125 144.577 40.3125Z" fill="white"/>
</g>
<defs>
<clipPath id="clip0_8320_3993">
<rect width="144.676" height="40.3125" fill="white"/>
</clipPath>
</defs>
</svg>
