<svg width="141" height="25" viewBox="0 0 141 25" fill="none" xmlns="http://www.w3.org/2000/svg">
<path d="M117.953 19.5437V9.96624C117.953 7.95179 117.729 6.53814 116.717 5.33654C115.444 3.78152 113.945 3.21606 111.923 3.21606C109.113 3.21606 106.828 4.80642 105.33 6.67951C105.143 6.18473 104.881 5.76063 104.543 5.33654C103.27 3.78152 101.772 3.21606 99.7488 3.21606C97.2391 3.21606 95.1414 4.52369 93.6431 6.11405C93.6431 5.08915 93.6431 4.20562 93.6431 3.56948H87.5V4.13494H87.8746C88.6987 4.13494 89.2231 4.59437 89.2231 5.54859C89.2231 5.86666 89.2231 19.261 89.2231 19.5437C89.2231 20.4979 88.6987 20.9574 87.8746 20.9574H87.5V21.5582H95.3662V20.9927H94.9916C94.1675 20.9927 93.6431 20.5333 93.6431 19.5791C93.6431 19.4024 93.6431 13.1116 93.6431 8.3052C94.617 7.06826 96.3026 5.68995 98.0257 5.68995C99.2618 5.68995 100.161 6.14939 100.685 6.85621C101.21 7.56304 101.322 8.26986 101.322 9.15339V19.5791C101.322 20.5333 100.798 20.9927 99.9735 20.9927H99.5989V21.5582H107.465V20.9927H107.091C106.266 20.9927 105.742 20.5333 105.742 19.5791C105.742 19.261 105.742 11.7333 105.742 10.0016C105.742 9.43612 105.705 8.90601 105.667 8.41123C106.641 7.13894 108.364 5.68995 110.162 5.68995C111.398 5.68995 112.297 6.14939 112.822 6.85621C113.346 7.56304 113.458 8.26986 113.458 9.15339C113.458 10.0369 113.458 19.261 113.458 19.5791C113.458 20.5333 112.934 20.9927 112.11 20.9927H111.735V21.5582H119.602V20.9927H119.227C118.478 20.9574 117.953 20.4979 117.953 19.5437Z" fill="white"/>
<path d="M76.5234 4.13486H76.898C77.7221 4.13486 78.2465 4.59429 78.2465 5.54851C78.2465 5.86658 78.2465 19.1195 78.2465 19.4023C78.2465 20.3565 77.7221 20.9573 76.898 20.9573H76.5234V21.5581H84.3896V20.9926H84.015C83.191 20.9926 82.6666 20.5332 82.6666 19.579C82.6666 19.2609 82.6666 5.90192 82.6666 5.58385C82.6666 4.62963 83.191 4.1702 84.015 4.1702H84.3896V3.60474H76.5234V4.13486Z" fill="white"/>
<path d="M139.338 16.8932C138.551 18.0594 136.454 20.1799 132.97 20.0739C130.048 19.9679 127.464 17.706 126.303 13.9599C124.879 9.29481 126.115 6.1141 129.299 4.73579C131.772 3.64021 134.618 4.80647 135.48 5.90205C134.356 6.43217 134.169 7.73979 134.431 8.5173C134.918 9.96629 136.866 10.7085 138.327 9.64822C139.188 9.01208 139.413 8.02252 139.188 7.03297C138.926 5.97273 137.99 5.12454 136.903 4.4884C135.48 3.64021 133.794 3.11009 131.659 3.11009C126.49 3.07475 121.695 7.17433 121.695 12.7936C121.695 18.5896 127.014 22.0883 131.584 22.0883C136.341 22.0883 139.263 19.2964 140.275 17.4586C140.2 17.4233 139.413 16.9639 139.338 16.8932Z" fill="white"/>
<path d="M12.7328 0C10.3729 0 8.5 1.8024 8.5 3.99356C8.5 6.22006 10.4104 7.98712 12.7328 7.98712C15.0926 7.98712 16.9655 6.18472 16.9655 3.99356C17.003 1.8024 15.0926 0 12.7328 0ZM12.7328 5.68994C11.7588 5.68994 10.9722 4.94778 10.9722 4.0289C10.9722 3.11003 11.7588 2.36786 12.7328 2.36786C13.7067 2.36786 14.4933 3.11003 14.4933 4.0289C14.5307 4.91243 13.7067 5.68994 12.7328 5.68994Z" fill="white"/>
<path d="M29.7367 8.02246C27.3768 8.02246 25.5039 9.82486 25.5039 12.016C25.5039 14.2425 27.4143 16.0096 29.7367 16.0096C32.0965 16.0096 33.9694 14.2072 33.9694 12.016C33.9694 9.82486 32.0965 8.02246 29.7367 8.02246ZM29.7367 13.6771C28.7628 13.6771 27.9761 12.9349 27.9761 12.016C27.9761 11.0972 28.7628 10.355 29.7367 10.355C30.7106 10.355 31.4972 11.0972 31.4972 12.016C31.4972 12.9349 30.7106 13.6771 29.7367 13.6771Z" fill="white"/>
<path d="M29.7367 0C27.3768 0 25.5039 1.8024 25.5039 3.99356C25.5039 6.22006 27.4143 7.98712 29.7367 7.98712C32.0965 7.98712 33.9694 6.18472 33.9694 3.99356C33.9694 1.8024 32.0965 0 29.7367 0ZM29.7367 5.68994C28.7628 5.68994 27.9761 4.94778 27.9761 4.0289C27.9761 3.11003 28.7628 2.36786 29.7367 2.36786C30.7106 2.36786 31.4972 3.11003 31.4972 4.0289C31.4972 4.91243 30.7106 5.68994 29.7367 5.68994Z" fill="white"/>
<path d="M21.2328 8.02246C18.8729 8.02246 17 9.82486 17 12.016C17 14.2425 18.9104 16.0096 21.2328 16.0096C23.5926 16.0096 25.4655 14.2072 25.4655 12.016C25.503 9.82486 23.5926 8.02246 21.2328 8.02246ZM21.2328 13.6771C20.2588 13.6771 19.4722 12.9349 19.4722 12.016C19.4722 11.0972 20.2588 10.355 21.2328 10.355C22.2067 10.355 22.9933 11.0972 22.9933 12.016C22.9933 12.9349 22.2067 13.6771 21.2328 13.6771Z" fill="white"/>
<path d="M21.2328 0C18.8729 0 17 1.8024 17 3.99356C17 6.22006 18.9104 7.98712 21.2328 7.98712C23.5926 7.98712 25.4655 6.18472 25.4655 3.99356C25.503 1.8024 23.5926 0 21.2328 0ZM21.2328 5.68994C20.2588 5.68994 19.4722 4.94778 19.4722 4.0289C19.4722 3.11003 20.2588 2.36786 21.2328 2.36786C22.2067 2.36786 22.9933 3.11003 22.9933 4.0289C22.9933 4.91243 22.2067 5.68994 21.2328 5.68994Z" fill="white"/>
<path d="M21.2328 16.0449C18.8729 16.0449 17 17.8473 17 20.0385C17 22.265 18.8729 24.032 21.2328 24.032C23.5926 24.032 25.503 22.265 25.503 20.0385C25.503 17.812 23.5926 16.0449 21.2328 16.0449ZM21.2328 21.6995C20.2588 21.6995 19.4722 20.9574 19.4722 20.0385C19.4722 19.1196 20.2588 18.3774 21.2328 18.3774C22.2067 18.3774 22.9933 19.1196 22.9933 20.0385C22.9933 20.9574 22.2067 21.6995 21.2328 21.6995Z" fill="white"/>
<path d="M12.7328 16.0449C10.3729 16.0449 8.5 17.8473 8.5 20.0385C8.5 22.265 10.4104 24.032 12.7328 24.032C15.0926 24.032 16.9655 22.2296 16.9655 20.0385C17.003 17.812 15.0926 16.0449 12.7328 16.0449ZM12.7328 21.6995C11.7588 21.6995 10.9722 20.9574 10.9722 20.0385C10.9722 19.1196 11.7588 18.3774 12.7328 18.3774C13.7067 18.3774 14.4933 19.1196 14.4933 20.0385C14.5307 20.9574 13.7067 21.6995 12.7328 21.6995Z" fill="white"/>
<path d="M38.2406 8.02246C35.8807 8.02246 34.0078 9.82486 34.0078 12.016C34.0078 14.2425 35.9182 16.0096 38.2406 16.0096C40.6004 16.0096 42.4733 14.2072 42.4733 12.016C42.4733 9.82486 40.563 8.02246 38.2406 8.02246ZM38.2406 13.6771C37.2667 13.6771 36.48 12.9349 36.48 12.016C36.48 11.0972 37.2667 10.355 38.2406 10.355C39.2145 10.355 40.0011 11.0972 40.0011 12.016C40.0011 12.9349 39.2145 13.6771 38.2406 13.6771Z" fill="white"/>
<path d="M46.7445 8.02246C44.3846 8.02246 42.5117 9.82486 42.5117 12.016C42.5117 14.2425 44.4221 16.0096 46.7445 16.0096C49.1043 16.0096 50.9772 14.2072 50.9772 12.016C50.9772 9.82486 49.0669 8.02246 46.7445 8.02246ZM46.7445 13.6771C45.7706 13.6771 44.9839 12.9349 44.9839 12.016C44.9839 11.0972 45.7706 10.355 46.7445 10.355C47.7184 10.355 48.505 11.0972 48.505 12.016C48.505 12.9349 47.7184 13.6771 46.7445 13.6771Z" fill="white"/>
<path d="M55.2093 8.02246C52.8495 8.02246 50.9766 9.82486 50.9766 12.016C50.9766 14.2425 52.8869 16.0096 55.2093 16.0096C57.5692 16.0096 59.4421 14.2072 59.4421 12.016C59.4795 9.82486 57.5692 8.02246 55.2093 8.02246ZM55.2093 13.6771C54.2354 13.6771 53.4488 12.9349 53.4488 12.016C53.4488 11.0972 54.2354 10.355 55.2093 10.355C56.1832 10.355 56.9698 11.0972 56.9698 12.016C57.0073 12.9349 56.2207 13.6771 55.2093 13.6771Z" fill="white"/>
<path d="M4.22885 0C1.90645 0 -0.00390625 1.8024 -0.00390625 3.99356C-0.00390625 6.22006 1.90645 7.98712 4.22885 7.98712C6.58871 7.98712 8.46161 6.18472 8.46161 3.99356C8.49907 1.8024 6.58871 0 4.22885 0ZM4.22885 5.68994C3.25494 5.68994 2.46832 4.94778 2.46832 4.0289C2.46832 3.11003 3.25494 2.36786 4.22885 2.36786C5.20276 2.36786 5.98938 3.11003 5.98938 4.0289C6.02684 4.91243 5.24022 5.68994 4.22885 5.68994Z" fill="white"/>
<path d="M29.7367 16.0449C27.3768 16.0449 25.5039 17.8473 25.5039 20.0385C25.5039 22.265 27.3768 24.032 29.7367 24.032C32.0965 24.032 33.9694 22.2296 33.9694 20.0385C33.9694 17.812 32.0965 16.0449 29.7367 16.0449ZM29.7367 21.6995C28.7628 21.6995 27.9761 20.9574 27.9761 20.0385C27.9761 19.1196 28.7628 18.3774 29.7367 18.3774C30.7106 18.3774 31.4972 19.1196 31.4972 20.0385C31.4972 20.9574 30.7106 21.6995 29.7367 21.6995Z" fill="white"/>
<path d="M38.2406 0C35.8807 0 34.0078 1.8024 34.0078 3.99356C34.0078 6.22006 35.9182 7.98712 38.2406 7.98712C40.6004 7.98712 42.4733 6.18472 42.4733 3.99356C42.4733 1.8024 40.563 0 38.2406 0ZM38.2406 5.68994C37.2667 5.68994 36.48 4.94778 36.48 4.0289C36.48 3.11003 37.2667 2.36786 38.2406 2.36786C39.2145 2.36786 40.0011 3.11003 40.0011 4.0289C40.0011 4.91243 39.2145 5.68994 38.2406 5.68994Z" fill="white"/>
<path d="M46.7445 0C44.3846 0 42.5117 1.8024 42.5117 3.99356C42.5117 6.22006 44.4221 7.98712 46.7445 7.98712C49.1043 7.98712 50.9772 6.18472 50.9772 3.99356C50.9772 1.8024 49.0669 0 46.7445 0ZM46.7445 5.68994C45.7706 5.68994 44.9839 4.94778 44.9839 4.0289C44.9839 3.11003 45.7706 2.36786 46.7445 2.36786C47.7184 2.36786 48.505 3.11003 48.505 4.0289C48.505 4.91243 47.7184 5.68994 46.7445 5.68994Z" fill="white"/>
<path d="M63.7132 0C61.3534 0 59.4805 1.8024 59.4805 3.99356C59.4805 6.22006 61.3908 7.98712 63.7132 7.98712C66.0731 7.98712 67.946 6.18472 67.946 3.99356C67.9834 1.8024 66.0731 0 63.7132 0ZM63.7132 5.68994C62.7393 5.68994 61.9527 4.94778 61.9527 4.0289C61.9527 3.11003 62.7393 2.36786 63.7132 2.36786C64.6871 2.36786 65.4738 3.11003 65.4738 4.0289C65.5112 4.91243 64.6871 5.68994 63.7132 5.68994Z" fill="white"/>
<path d="M63.7132 16.0449C61.3534 16.0449 59.4805 17.8473 59.4805 20.0385C59.4805 22.265 61.3908 24.032 63.7132 24.032C66.0731 24.032 67.946 22.2296 67.946 20.0385C67.9834 17.812 66.0731 16.0449 63.7132 16.0449ZM63.7132 21.6995C62.7393 21.6995 61.9527 20.9574 61.9527 20.0385C61.9527 19.1196 62.7393 18.3774 63.7132 18.3774C64.6871 18.3774 65.4738 19.1196 65.4738 20.0385C65.5112 20.9574 64.6871 21.6995 63.7132 21.6995Z" fill="white"/>
<path d="M55.2093 0C52.8495 0 50.9766 1.8024 50.9766 3.99356C50.9766 6.22006 52.8869 7.98712 55.2093 7.98712C57.5692 7.98712 59.4421 6.18472 59.4421 3.99356C59.4795 1.8024 57.5692 0 55.2093 0ZM55.2093 5.68994C54.2354 5.68994 53.4488 4.94778 53.4488 4.0289C53.4488 3.11003 54.2354 2.36786 55.2093 2.36786C56.1832 2.36786 56.9698 3.11003 56.9698 4.0289C57.0073 4.91243 56.2207 5.68994 55.2093 5.68994Z" fill="white"/>
<path d="M55.2093 16.0449C52.8495 16.0449 50.9766 17.8473 50.9766 20.0385C50.9766 22.265 52.8869 24.032 55.2093 24.032C57.5692 24.032 59.4421 22.2296 59.4421 20.0385C59.4795 17.812 57.5692 16.0449 55.2093 16.0449ZM55.2093 21.6995C54.2354 21.6995 53.4488 20.9574 53.4488 20.0385C53.4488 19.1196 54.2354 18.3774 55.2093 18.3774C56.1832 18.3774 56.9698 19.1196 56.9698 20.0385C57.0073 20.9574 56.2207 21.6995 55.2093 21.6995Z" fill="white"/>
<path d="M46.7445 16.0449C44.3846 16.0449 42.5117 17.8473 42.5117 20.0385C42.5117 22.265 44.4221 24.032 46.7445 24.032C49.1043 24.032 50.9772 22.2296 50.9772 20.0385C50.9772 17.812 49.0669 16.0449 46.7445 16.0449ZM46.7445 21.6995C45.7706 21.6995 44.9839 20.9574 44.9839 20.0385C44.9839 19.1196 45.7706 18.3774 46.7445 18.3774C47.7184 18.3774 48.505 19.1196 48.505 20.0385C48.505 20.9574 47.7184 21.6995 46.7445 21.6995Z" fill="white"/>
<path d="M38.2406 16.0449C35.8807 16.0449 34.0078 17.8473 34.0078 20.0385C34.0078 22.265 35.9182 24.032 38.2406 24.032C40.6004 24.032 42.4733 22.2296 42.4733 20.0385C42.4733 17.812 40.563 16.0449 38.2406 16.0449ZM38.2406 21.6995C37.2667 21.6995 36.48 20.9574 36.48 20.0385C36.48 19.1196 37.2667 18.3774 38.2406 18.3774C39.2145 18.3774 40.0011 19.1196 40.0011 20.0385C40.0011 20.9574 39.2145 21.6995 38.2406 21.6995Z" fill="white"/>
<path d="M4.22885 8.02246C1.90645 8.02246 -0.00390625 9.82486 -0.00390625 12.016C-0.00390625 14.2425 1.90645 16.0096 4.22885 16.0096C6.58871 16.0096 8.46161 14.2072 8.46161 12.016C8.49907 9.82486 6.58871 8.02246 4.22885 8.02246ZM4.22885 13.6771C3.25494 13.6771 2.46832 12.9349 2.46832 12.016C2.46832 11.0972 3.25494 10.355 4.22885 10.355C5.20276 10.355 5.98938 11.0972 5.98938 12.016C6.02684 12.9349 5.24022 13.6771 4.22885 13.6771Z" fill="white"/>
<path d="M12.7328 8.02246C10.3729 8.02246 8.5 9.82486 8.5 12.016C8.5 14.2425 10.4104 16.0096 12.7328 16.0096C15.0926 16.0096 16.9655 14.2072 16.9655 12.016C17.003 9.82486 15.0926 8.02246 12.7328 8.02246ZM12.7328 13.6771C11.7588 13.6771 10.9722 12.9349 10.9722 12.016C10.9722 11.0972 11.7588 10.355 12.7328 10.355C13.7067 10.355 14.4933 11.0972 14.4933 12.016C14.5307 12.9349 13.7067 13.6771 12.7328 13.6771Z" fill="white"/>
<path d="M4.22885 16.0449C1.90645 16.0449 -0.00390625 17.812 -0.00390625 20.0385C-0.00390625 22.265 1.90645 24.032 4.22885 24.032C6.58871 24.032 8.46161 22.2296 8.46161 20.0385C8.49907 17.812 6.58871 16.0449 4.22885 16.0449ZM4.22885 21.6995C3.25494 21.6995 2.46832 20.9574 2.46832 20.0385C2.46832 19.1196 3.25494 18.3774 4.22885 18.3774C5.20276 18.3774 5.98938 19.1196 5.98938 20.0385C6.02684 20.9574 5.24022 21.6995 4.22885 21.6995Z" fill="white"/>
<path d="M63.7132 8.02246C61.3534 8.02246 59.4805 9.82486 59.4805 12.016C59.4805 14.2425 61.3908 16.0096 63.7132 16.0096C66.0731 16.0096 67.946 14.2072 67.946 12.016C67.9834 9.82486 66.0731 8.02246 63.7132 8.02246ZM63.7132 13.6771C62.7393 13.6771 61.9527 12.9349 61.9527 12.016C61.9527 11.0972 62.7393 10.355 63.7132 10.355C64.6871 10.355 65.4738 11.0972 65.4738 12.016C65.5112 12.9349 64.6871 13.6771 63.7132 13.6771Z" fill="white"/>
</svg>
