<svg width="117" height="39" viewBox="0 0 117 39" fill="none" xmlns="http://www.w3.org/2000/svg">
<g clip-path="url(#clip0_8320_3975)">
<path d="M0.500113 29.4754L0.375188 29.7702C-0.0048659 30.8597 -0.112412 32.0174 0.0609804 33.1527C0.234373 34.288 0.683993 35.3699 1.3746 36.3137L2.12416 37.2569L9.43235 20.2202L6.18426 16.1526L0.500113 29.4754Z" fill="white"/>
<path d="M33.482 8.19409H23.7378L22.7384 9.1373H3L6.24809 13.2049H8.55922L7.7472 15.0913L11.6824 19.9253L4.56158 36.4315L13.5563 33.425L18.0536 22.9318H27.1733L29.4219 17.6852H18.6158L15.8674 14.266H30.8586L33.482 8.19409Z" fill="white"/>
<path d="M48.4717 20.5739L53.3438 9.25539C53.4733 8.93514 53.7053 8.66091 54.0076 8.47076C54.3098 8.2806 54.6672 8.18397 55.0303 8.19428H60.0898L51.6573 27.8838L47.1599 26.7048H31.1694C30.8631 26.7108 30.5602 26.6434 30.2891 26.5089C30.0179 26.3745 29.7874 26.1773 29.6189 25.9358C29.4504 25.6944 29.3496 25.4166 29.3258 25.1284C29.302 24.8402 29.356 24.551 29.4828 24.2878L36.4163 8.19428H40.0391C40.3426 8.18265 40.6442 8.2432 40.9164 8.37037C41.1886 8.49755 41.4225 8.68726 41.5966 8.92206C41.7708 9.15687 41.8796 9.42923 41.9131 9.7141C41.9465 9.99897 41.9035 10.2872 41.7881 10.5523L37.6655 19.9844C37.6319 20.0504 37.6175 20.1237 37.6237 20.1968C37.63 20.2698 37.6568 20.3399 37.7014 20.3999C37.7459 20.46 37.8065 20.5077 37.8771 20.5383C37.9476 20.5689 38.0255 20.5812 38.1028 20.5739H48.4717Z" fill="white"/>
<path d="M80.391 26.1741L76.2685 22.9318H80.2661C80.6292 22.9421 80.9866 22.8454 81.2889 22.6553C81.5911 22.4651 81.8231 22.1909 81.9526 21.8707L86.3875 11.4953C86.5006 11.2349 86.5439 10.9522 86.5134 10.6722C86.483 10.3922 86.3797 10.1237 86.2129 9.89039C86.046 9.65711 85.8207 9.46631 85.557 9.33494C85.2933 9.20357 84.9992 9.13568 84.701 9.1373H73.8324L72.833 8.19409H63.0263L54.5938 27.8836H60.153C60.5212 27.882 60.8814 27.7813 61.1912 27.5934C61.5009 27.4055 61.7475 27.138 61.9019 26.8225L67.2738 14.266H78.0799C78.1725 14.261 78.265 14.2776 78.3492 14.3145C78.4333 14.3514 78.5065 14.4073 78.5621 14.4773C78.6178 14.5474 78.6542 14.6293 78.6682 14.7159C78.6821 14.8025 78.6732 14.8909 78.6421 14.9734L77.4553 17.6852H68.7104L67.2113 21.2222C67.052 21.6195 67.0265 22.0535 67.1383 22.465C67.2501 22.8765 67.4937 23.2453 67.8359 23.5213L82.3899 34.4861C83.1386 33.0986 83.3486 31.5074 82.9834 29.9889C82.6183 28.4704 81.701 27.1206 80.391 26.1741Z" fill="white"/>
<path d="M106.001 17.6852H93.0089L95.6323 11.4953C95.7455 11.2349 95.7887 10.9522 95.7582 10.6722C95.7278 10.3922 95.6245 10.1237 95.4577 9.89039C95.2908 9.65711 95.0656 9.46631 94.8018 9.33494C94.5381 9.20357 94.244 9.13568 93.9458 9.1373H90.3854L85.4508 20.5148C85.3387 20.7834 85.2979 21.0738 85.332 21.3607C85.3662 21.6476 85.4742 21.9222 85.6467 22.1606C85.8193 22.399 86.051 22.594 86.3217 22.7284C86.5924 22.8628 86.8939 22.9326 87.1998 22.9318H93.696L89.3235 33.0713L94.6954 37.2568L100.817 22.9318H108.812C109.18 22.9302 109.54 22.8295 109.85 22.6415C110.16 22.4536 110.407 22.1862 110.561 21.8707L116.37 8.19409H111.311C110.942 8.19569 110.582 8.29637 110.272 8.48431C109.963 8.67226 109.716 8.93968 109.562 9.2552L106.001 17.6852Z" fill="white"/>
<path d="M96.2578 38.4358C99.4434 37.6695 101.192 37.3747 102.442 34.4861L106.627 24.7593H102.129L96.2578 38.4358Z" fill="white"/>
<path d="M103.629 37.8464V36.2547H103.004V35.96H104.628V36.2547H104.003V37.8464H103.629ZM104.878 37.8464V35.96H105.315L105.815 37.4927L106.314 35.96H106.814V37.8464H106.502V36.2547L106.002 37.8464H105.69L105.128 36.2547V37.8464H104.878Z" fill="white"/>
<path d="M4.62404 2.47606L6.5604 5.06989H5.49853C3.87448 2.77081 3.87449 2.88872 3.87449 2.88872V5.06989H3V0.059082H3.87449V2.18131L5.43607 0.059082H6.49794L4.62404 2.47606Z" fill="white"/>
<path d="M10.8086 0.059082H11.6831V5.06989H10.8086V0.059082Z" fill="white"/>
<path d="M19.99 5.06989H18.8657L17.1792 1.1202C17.2312 1.60983 17.2521 2.10197 17.2417 2.59396V5.06989H16.3672V0.059082H17.4915L19.178 4.00878V0.059082H19.99V5.06989Z" fill="white"/>
<path d="M24.6133 3.36019V1.76852C24.6133 0.471606 25.1754 0 26.4247 0C27.674 0 28.2361 0.471604 28.2361 1.59167H27.3617C27.3835 1.47094 27.3743 1.34704 27.3349 1.23035C27.2956 1.11365 27.2271 1.00756 27.1354 0.920965C27.0436 0.834368 26.9312 0.769786 26.8076 0.732629C26.6839 0.695472 26.5526 0.686823 26.4247 0.707407C25.8001 0.707407 25.4878 0.943212 25.4878 1.70957V3.41914C25.4878 4.1855 25.8001 4.4213 26.4872 4.4213C27.1743 4.4213 27.4241 4.1855 27.4241 3.53704V2.88858H26.4872V2.18117H28.2986V5.06976H27.8614L27.7364 4.65711C27.5752 4.83077 27.3713 4.96455 27.1427 5.04675C26.914 5.12896 26.6675 5.15709 26.4247 5.12871C25.1754 5.12871 24.6133 4.6571 24.6133 3.36019Z" fill="white"/>
<path d="M35.4788 1.41482C35.4788 0.943212 35.229 0.707406 34.6044 0.707406C33.9797 0.707406 33.6674 0.943212 33.6674 1.41482C33.6674 1.88642 33.8548 2.12222 34.7917 2.24012C35.7287 2.35802 36.4783 2.77068 36.4783 3.65494C36.4783 4.5392 35.8536 5.12871 34.6044 5.12871C33.3551 5.12871 32.7305 4.775 32.7305 3.65494H33.6049C33.6049 4.24445 33.9173 4.4213 34.6044 4.4213C35.2915 4.4213 35.6038 4.24445 35.6038 3.65494C35.6038 3.06543 35.4164 3.00648 34.417 2.82963C33.4176 2.65278 32.7929 2.29908 32.7929 1.41482C32.7929 0.530557 33.3551 0 34.6044 0C35.8536 0 36.3533 0.412656 36.3533 1.41482H35.4788Z" fill="white"/>
<path d="M41.8508 0.825443H40.6016V0.059082H43.9746V0.825443H42.7253V5.06989H41.8508V0.825443Z" fill="white"/>
<path d="M51.8454 3.41914C51.8454 4.6571 51.2833 5.12871 49.9715 5.12871C48.6598 5.12871 48.0977 4.6571 48.0977 3.41914V1.70957C48.0977 0.471606 48.6598 0 49.9715 0C51.2833 0 51.8454 0.471606 51.8454 1.70957V3.41914ZM48.9721 3.41914C48.9721 4.1855 49.3469 4.4213 49.9715 4.4213C50.5962 4.4213 50.971 4.1855 50.971 3.41914V1.70957C50.971 0.943212 50.6586 0.707406 49.9715 0.707406C49.2845 0.707406 48.9721 0.943212 48.9721 1.70957V3.41914Z" fill="white"/>
<path d="M60.0916 5.06989H58.9673L57.2808 1.1202V5.06989H56.4688V0.059082H57.5306L59.2796 4.00878C59.2796 3.59612 59.2171 2.94767 59.2171 2.59396V0.059082H60.0916V5.06989Z" fill="white"/>
</g>
<defs>
<clipPath id="clip0_8320_3975">
<rect width="116.369" height="38.4358" fill="white"/>
</clipPath>
</defs>
</svg>
