<svg width="74" height="35" viewBox="0 0 74 35" fill="none" xmlns="http://www.w3.org/2000/svg">
<g clip-path="url(#clip0_8320_3958)">
<path fill-rule="evenodd" clip-rule="evenodd" d="M36.9139 34.0909H0V0H73.0414L36.9139 34.0909ZM36.1563 6.41042H43.3475C50.218 6.41042 53.4452 8.72159 53.4452 13.7533C53.4452 18.2737 50.1241 20.9726 44.5076 20.9726H42.1855V27.49H31.5334L30.4707 24.375C29.2594 24.7407 27.9946 24.924 26.7228 24.9181C25.4182 24.9261 24.1211 24.7325 22.8828 24.3449L21.7864 27.49H15.263L15.9928 25.6768C15.9843 25.684 15.9759 25.6911 15.9675 25.6982C15.8897 25.7643 15.8136 25.8289 15.7289 25.8907C14.1029 27.1273 12.066 27.8058 9.54379 27.8476H9.17006C6.31324 27.8394 3.50698 27.136 1.02246 25.8055L3.24179 21.6427C5.65242 22.9846 7.15973 23.2854 9.19486 23.2453C10.2505 23.2286 11.0157 23.0448 11.5134 22.5602C11.8064 22.2728 11.975 21.8926 11.9863 21.494C12.0058 20.4128 10.3763 19.9048 8.3801 19.3215C6.7612 18.8486 4.92622 18.2052 3.49154 17.2126C1.79117 16.0428 0.981722 14.5638 1.02246 12.4833C1.03185 11.004 1.64826 9.5857 2.74231 8.52607C4.32224 6.98362 6.87279 6.04779 9.93345 6.04779H9.94939C12.5761 6.05113 15.7749 6.75468 18.1005 7.86597L15.6031 11.9686C13.0632 10.8138 11.7879 10.7035 10.3408 10.6317C8.1888 10.5281 7.10128 11.25 7.08534 12.0321C7.05877 12.988 9.11515 13.8519 11.0529 14.4385C13.9931 15.3192 17.7126 16.494 18.2865 19.8947L23.648 6.40541H29.8756L36.1563 22.5401V6.41042ZM24.4273 19.8396C25.1644 20.096 25.9444 20.2251 26.7299 20.2206C27.4983 20.2211 28.2612 20.099 28.9864 19.8596L26.7458 13.0565H26.7069L24.4273 19.8396ZM42.1855 16.3219H43.769V16.3135C45.8821 16.3135 47.5665 15.6501 47.5665 13.5445C47.5665 11.5157 45.8821 10.8473 43.769 10.8473H42.1855V16.3219Z" fill="white"/>
</g>
<defs>
<clipPath id="clip0_8320_3958">
<rect width="73.0414" height="34.0909" fill="white"/>
</clipPath>
</defs>
</svg>
