<svg width="117" height="35" viewBox="0 0 117 35" fill="none" xmlns="http://www.w3.org/2000/svg">
<g clip-path="url(#clip0_8320_3910)">
<path d="M1.64453 0L18.8032 8.91926L35.9619 0H1.64453Z" fill="white"/>
<path d="M17.7565 34.7595V10.8589L0 1.63379L17.7565 34.7595Z" fill="white"/>
<path d="M19.8438 34.7595V10.8589L37.6076 1.63379L19.8438 34.7595Z" fill="white"/>
<path d="M44.3612 10.1081C43.7855 10.1081 43.4977 10.2471 43.4977 10.5252C43.4977 10.8033 43.7855 10.9354 44.3612 10.9215H48.6712C50.9688 10.9215 52.1176 12.0036 52.1176 14.168C52.1176 16.87 50.681 18.2233 47.8077 18.2279H40.0586V14.9814H47.8077C48.3833 14.9814 48.6712 14.8562 48.6712 14.606C48.6712 14.3557 48.3833 14.2097 47.8077 14.168H44.3612C41.4879 14.168 40.0537 13.0858 40.0586 10.9215C40.0586 8.21951 41.4928 6.86621 44.3612 6.86157H52.1176V10.1081H44.3612Z" fill="white"/>
<path d="M52.9766 6.86157H65.0356V10.1081H52.9766V6.86157ZM52.9766 10.9215H65.0356V14.168H52.9766V10.9215ZM52.9766 18.2279V14.9814H65.0356V18.2279H52.9766Z" fill="white"/>
<path d="M65.8984 12.5413C65.8984 8.75944 67.9083 6.86622 71.928 6.86158C75.9476 6.85695 77.9575 8.59955 77.9575 12.0894H74.511C74.511 10.7685 73.6549 10.1081 71.928 10.1081C70.201 10.1081 69.3449 10.9215 69.3449 12.5413C69.3449 14.161 70.2084 14.9814 71.928 14.9814C73.6475 14.9814 74.511 14.307 74.511 12.9653H77.9575C77.9575 16.4691 75.9476 18.2233 71.928 18.2279C67.9083 18.2325 65.8984 16.337 65.8984 12.5413Z" fill="white"/>
<path d="M83.9864 14.168H82.2668V18.2279H78.8203V6.86157H86.5694C89.4427 6.86157 90.8793 8.21487 90.8793 10.9215C90.8793 12.4184 90.1955 13.3987 88.8277 13.8621L96.0454 20.661H90.8793L83.9864 14.168ZM82.2668 10.1081V10.9215H86.5694C87.145 10.9215 87.4328 10.7894 87.4328 10.5252C87.4328 10.261 87.145 10.122 86.5694 10.1081H82.2668Z" fill="white"/>
<path d="M91.7422 6.86157H103.801V10.1081H91.7422V6.86157ZM91.7422 10.9215H103.801V14.168H91.7422V10.9215ZM91.7422 18.2279V14.9814H103.801V18.2279H91.7422Z" fill="white"/>
<path d="M104.664 6.86157H116.723V10.1081H112.413V18.2279H108.967V10.1081H104.664V6.86157Z" fill="white"/>
<path d="M78.8203 21.6274H82.2668V29.7403H90.8794V32.9868H78.8203V21.6274Z" fill="white"/>
<path d="M91.7422 32.9868V27.3071C91.7422 23.5207 93.752 21.6274 97.7717 21.6274C101.791 21.6274 103.801 23.5207 103.801 27.3071V32.9868H100.355V30.5536H95.1887V32.9868H91.7422ZM100.355 27.3071C100.355 25.6897 99.4937 24.8786 97.7717 24.874C96.0448 24.874 95.1887 25.6873 95.1887 27.3071H100.355Z" fill="white"/>
<path d="M104.664 32.9868V21.6274H112.413C115.284 21.6274 116.723 22.9761 116.723 25.6873C116.723 26.7649 116.147 27.3071 114.996 27.3071C116.147 27.3071 116.723 27.8494 116.723 28.9269C116.723 31.6289 115.286 32.9822 112.413 32.9868H104.664ZM112.413 25.6873C112.989 25.6873 113.277 25.5483 113.277 25.2772C113.277 25.0061 112.989 24.874 112.413 24.874H108.103V25.6873H112.413ZM112.413 29.7403C112.989 29.7403 113.277 29.6082 113.277 29.3371C113.277 29.0659 112.989 28.9269 112.413 28.9269H108.103V29.7403H112.413Z" fill="white"/>
</g>
<defs>
<clipPath id="clip0_8320_3910">
<rect width="116.723" height="34.7594" fill="white"/>
</clipPath>
</defs>
</svg>
