<svg width="159" height="24" viewBox="0 0 159 24" fill="none" xmlns="http://www.w3.org/2000/svg">
<path d="M26.8339 0.96925C26.8517 0.635025 27.135 0.350932 27.4893 0.350932H31.6339C31.9882 0.350932 32.2893 0.635025 32.2893 0.96925V9.17446H42.2435V0.96925C42.2435 0.618314 42.5446 0.350932 42.8989 0.350932H47.0435C47.3978 0.367643 47.6989 0.635025 47.6989 0.96925V22.5267C47.6812 22.861 47.3978 23.1451 47.0435 23.1451H42.8989C42.5269 23.1451 42.2435 22.8777 42.2435 22.5267V13.9706H32.2893V22.5267C32.2893 22.861 31.9882 23.1451 31.6339 23.1451H27.4893C27.135 23.1284 26.8339 22.861 26.8339 22.5267V0.96925ZM67.0583 0.0167072C60.2037 -0.0167153 54.6066 5.19719 54.5535 11.6644C54.5535 11.6979 54.5535 11.7313 54.5535 11.7647C54.5535 18.2821 60.0797 23.4626 67.0583 23.4626C74.0369 23.4626 79.5985 18.2821 79.5985 11.7647C79.5985 5.28075 74.0191 0 67.1468 0C67.1114 0.0167112 67.076 0.0167072 67.0583 0.0167072ZM67.0583 18.2654C63.2679 18.2654 60.1328 15.3409 60.1328 11.7814C60.1859 8.15508 63.3564 5.28075 67.1823 5.33088C70.9372 5.38101 73.9483 8.23864 74.0191 11.7814C74.0191 15.3242 70.8841 18.2654 67.0583 18.2654ZM86.4354 22.5267C86.4354 22.861 86.7365 23.1451 87.0907 23.1451H91.2354C91.5896 23.1284 91.8907 22.861 91.8907 22.5267V14.2213H94.2819L98.9047 22.861C99.0287 23.0448 99.2413 23.1618 99.4715 23.1618H104.112C104.466 23.1785 104.785 22.9278 104.803 22.5936C104.821 22.4599 104.785 22.3262 104.697 22.2259L99.9321 13.9205C102.961 12.7841 105.086 10.3777 105.086 7.36965C105.086 3.49264 101.668 0.334225 97.5055 0.334225H87.0907C86.7365 0.334225 86.4354 0.601607 86.4354 0.952543V22.5267ZM91.8907 10.0769V4.99665H97.045C98.4974 4.99665 99.6664 6.0996 99.6841 7.46993C99.6841 8.84025 98.4619 10.0769 97.045 10.0769H91.8907ZM113.73 22.5267C113.748 22.861 114.031 23.1451 114.385 23.1451H118.53C118.884 23.1451 119.185 22.8777 119.185 22.5267V10.3777H119.221L132.965 23.3122C133.107 23.3957 133.249 23.4626 133.408 23.4793H133.975C134.329 23.4793 134.612 23.2286 134.63 22.8944V0.96925C134.612 0.635025 134.329 0.350932 133.975 0.350932H129.795C129.423 0.350932 129.139 0.618314 129.139 0.96925V12.5334H129.104L115.483 0.267376C115.306 0.116975 115.076 0.0167072 114.846 0.0167072H114.35C113.996 0.0167072 113.712 0.267376 113.694 0.6016L113.73 22.5267ZM143.256 22.5267C143.256 22.861 143.557 23.1451 143.911 23.1451H158.329C158.701 23.1451 158.984 22.8777 158.984 22.5267V18.984C158.984 18.633 158.683 18.3656 158.329 18.3656H148.694V13.9706H156.629C157.001 13.9706 157.284 13.6865 157.284 13.3523V9.8095C157.266 9.47527 156.983 9.20789 156.629 9.19118H148.694V5.14706H158.329C158.701 5.14706 158.984 4.87968 158.984 4.52874V0.985957C158.984 0.635021 158.683 0.367649 158.329 0.367649H143.911C143.557 0.367649 143.256 0.635021 143.256 0.985957V22.5267ZM19.3417 0.350932H0.65535C0.283394 0.350932 0 0.618314 0 0.96925V4.51203C0 4.86297 0.301106 5.13035 0.65535 5.13035H7.24428V22.8108C7.26199 23.0114 7.43911 23.1451 7.63395 23.1451H8.05904C8.23616 23.1451 8.5904 22.9612 8.83837 22.744C9.08634 22.5267 9.21033 22.4098 9.21033 22.4098L9.22804 22.3931L12.1505 19.6357C12.5225 19.2848 12.7351 18.8169 12.7351 18.3155V17.2126V5.13035H19.324C19.6959 5.13035 19.9793 4.86297 19.9793 4.51203V0.96925C19.997 0.618314 19.6959 0.350932 19.3417 0.350932Z" fill="white"/>
</svg>
