<svg width="125" height="40" viewBox="0 0 125 40" fill="none" xmlns="http://www.w3.org/2000/svg">
<g clip-path="url(#clip0_8320_4011)">
<path fill-rule="evenodd" clip-rule="evenodd" d="M17.5007 7.18334L11.9948 0H0V24.6286L15.2657 38.9947H30.5312V34.8902L34.8931 38.9947H64.3335V34.8902L68.6952 38.9947H82.8702V34.8902L87.2318 38.9947H114.491L124.305 29.759V12.314L118.853 7.18334H113.401V0H101.43L95.9239 7.18334H86.1411L82.8702 10.2616V7.18334H75.2376V0H51.2489V7.18334H17.5007ZM10.9041 9.2355V2.05245H2.18115V23.6025L6.54248 27.7069H18.537V19.4974H10.9041V17.445H18.537V9.2355H10.9041ZM29.4411 19.4974V9.23553H20.7178V23.6022L25.0791 27.707H51.249V9.23553H42.5254V19.4974H40.3445V9.23553H31.6216V19.4974H29.4411ZM73.0566 9.2355V2.05245H64.3336V23.6025L68.695 27.7069H80.6895V19.4974H73.0566V17.445H80.6895V9.2355H73.0566ZM111.22 9.23553V2.05218H102.497V27.707H111.22V17.4448H113.401V27.707H122.125V13.3403L117.763 9.23553H111.22ZM62.1526 27.7069V9.23579H53.4293V27.7069H62.1526ZM91.5934 17.445H100.317V9.2355H87.2318L82.8705 13.3403V23.6025L87.2318 27.7069H100.317V19.4974H91.5934V17.445ZM62.1526 7.18311V2.05215H53.4293V7.18311H62.1526Z" fill="white"/>
</g>
<defs>
<clipPath id="clip0_8320_4011">
<rect width="124.339" height="39.1043" fill="white"/>
</clipPath>
</defs>
</svg>
